<?xml version="1.0" standalone="no"?>
<!DOCTYPE svg PUBLIC "-//W3C//DTD SVG 20010904//EN"
 "http://www.w3.org/TR/2001/REC-SVG-20010904/DTD/svg10.dtd">
<svg version="1.0" xmlns="http://www.w3.org/2000/svg"
 width="300.000000pt" height="300.000000pt" viewBox="0 0 300.000000 300.000000"
 preserveAspectRatio="xMidYMid meet">
<metadata>
Created by potrace 1.11, written by Peter Selinger 2001-2013
</metadata>
<g transform="translate(0.000000,300.000000) scale(0.100000,-0.100000)"
fill="#000000" stroke="none">
<path d="M1477 2664 c-3 -3 -30 -7 -59 -9 -135 -8 -275 -44 -404 -104 -72 -34
-191 -104 -204 -120 -3 -3 -25 -22 -50 -42 -149 -120 -264 -280 -339 -471 -17
-42 -33 -89 -35 -102 -3 -14 -7 -29 -9 -33 -6 -9 -16 -65 -26 -148 -9 -62 -6
-271 4 -315 2 -14 8 -41 12 -60 4 -19 8 -37 8 -40 1 -3 5 -18 9 -35 4 -16 10
-37 13 -45 4 -8 7 -17 8 -20 77 -225 230 -426 440 -575 38 -28 72 -50 75 -50
3 -1 33 -16 68 -33 63 -33 212 -86 267 -96 17 -3 41 -8 55 -11 48 -9 205 -21
220 -15 3 0 28 3 55 4 44 3 94 10 159 22 126 23 365 130 433 193 12 12 25 21
28 21 15 0 163 145 204 200 14 19 28 37 32 40 3 3 25 39 50 80 64 107 125 260
144 360 3 14 8 36 11 50 3 14 7 88 9 165 4 139 -1 183 -34 328 -6 26 -15 55
-20 65 -5 9 -20 44 -32 77 -13 33 -38 85 -56 115 -17 30 -41 72 -53 93 -11 20
-25 37 -30 37 -6 0 -10 5 -10 10 0 6 -8 18 -17 28 -10 10 -33 35 -51 57 -17
21 -56 58 -85 83 -28 24 -61 51 -72 61 -41 34 -172 108 -250 141 -120 50 -222
74 -365 85 -47 4 -88 9 -91 11 -3 2 -9 1 -12 -2z"/>
</g>
</svg>
